<svg xmlns="http://www.w3.org/2000/svg" width="24" height="20" viewBox="0 0 24 20" fill="#ffffff">
  <path d="M22.717 8.54965C21.7617 5.26756 20.6844 3.57171 20.667 3.54129C20.6056 3.46634 19.0833 1.64459
         15.4143 0.297119L14.9295 1.61712C16.6749 2.25818 17.9133 3.04024 18.5943 3.54556C16.5611 2.93838 14.1423
         2.56652 12 2.56652C9.85772 2.56652 7.43892 2.93838 5.40567 3.54556C6.08667 3.04029 7.32502 2.25818 9.0705
         1.61712L8.58567 0.297119C4.91672 1.64459 3.39441 3.46634 3.333 3.54129C3.31561 3.57171 2.23828 5.26756
         1.28306 8.54965C0.362438 11.7126 0.0127031 16.1746 0 16.3535C0.0820312 16.4817 1.96875 19.703 7.11061
         19.703L8.41392 17.8157C6.95377 17.428 5.56144 16.8028 4.28691 15.9544L5.06611 14.7838C7.12228 16.1524
         9.51998 16.8759 12 16.8759C14.48 16.8759 16.8777 16.1524 18.9339 14.7838L19.7131 15.9544C18.4386 16.8028
         17.0462 17.428 15.5861 17.8157L16.8894 19.703C22.0312 19.703 23.918 16.4817 24 16.3535C23.9873 16.1746
         23.6376 11.7126 22.717 8.54965ZM8.74884 12.2285H7.34259V9.88474H8.74884V12.2285ZM16.6574
         12.2285H15.2512V9.88474H16.6574V12.2285Z"/>
</svg>
