<svg width="24" height="20" viewBox="0 0 24 20" fill="#ffffff" xmlns="http://www.w3.org/2000/svg">
  <path d="M23.4447 3.26507C23.5123 3.17084 23.4125 3.04917 23.3043 3.09108C22.5358 3.38897 21.7326
         3.58995 20.9134 3.68899C21.8256 3.14402 22.5295 2.31442 22.9199 1.33225C22.9596 1.2322 22.8504
         1.14284 22.7561 1.19489C21.9083 1.66312 20.9939 2.00028 20.0441 2.19446C20.0043 2.20259 19.9633
         2.18905 19.9354 2.1596C19.2226 1.40748 18.2843 0.906704 17.2615 0.733653C16.2171 0.556967
         15.1437 0.731911 14.2095 1.23105C13.2752 1.73018 12.5331 2.52528 12.0995 3.49164C11.6872
         4.41045 11.5759 5.43468 11.7793 6.41833C11.7951 6.49465 11.7353 6.56671 11.6575 6.56188C9.80946
         6.4471 8.00381 5.95554 6.3518 5.11683C4.70398 4.28025 3.2448 3.11642 2.06311 1.69714C2.01067
         1.63415 1.91127 1.6423 1.87306 1.71481C1.50536 2.41256 1.31284 3.19025 1.31337 3.98066C1.31187
         4.76744 1.50495 5.54238 1.87541 6.23648C2.24587 6.93059 2.78222 7.52232 3.4367 7.95899C2.74262
         7.94011 2.06207 7.76852 1.44316 7.45741C1.36339 7.41732 1.26772 7.4744 1.27187 7.56358C1.32013
         8.60102 1.70099 9.64254 2.36023 10.4416C3.06177 11.292 4.0355 11.8739 5.1167 12.089C4.7005 12.2157
         4.26839 12.2824 3.83337 12.2873C3.5966 12.2846 3.3603 12.2671 3.12582 12.235C3.03889 12.2231
         2.9679 12.3057 2.99833 12.388C3.32082 13.2601 3.89053 14.0211 4.63962 14.5765C5.44048 15.1704 6.40654 15.4998
         7.40337 15.519C5.7201 16.8435 3.6419 17.5663 1.50003 17.5723C1.27995 17.573 1.05996 17.5659 0.840494
         17.551C0.716818 17.5425 0.659938 17.7073 0.766542 17.7706C2.85344 19.009 5.23872 19.6636  7.6717
         19.6607C9.46801 19.6793 11.25 19.3398 12.9137 18.6621C14.5773 17.9843 16.0892 16.9819 17.3611 15.7132C18.633
         14.4446 19.6393 12.9353 20.3213 11.2734C21.0034 9.61148 21.3474 7.83034 21.3334 6.03399V5.47419C21.3334
         5.43736 21.3508 5.40272 21.3802 5.38052C22.1715 4.78303 22.8674 4.06968 23.4447 3.26507Z"/>
</svg>
