<?xml version="1.0" encoding="utf-8"?><svg version="1.1" id="Layer_1" xmlns="http://www.w3.org/2000/svg" xmlns:xlink="http://www.w3.org/1999/xlink" x="0px" y="0px" viewBox="0 0 122.88 122.75" style="enable-background:new 0 0 122.88 122.75" xml:space="preserve"><style type="text/css">.st0{fill-rule:evenodd;clip-rule:evenodd;fill:#FFB300;} .st1{fill-rule:evenodd;clip-rule:evenodd;fill:#5E990B;} .st2{fill-rule:evenodd;clip-rule:evenodd;fill:#FFD33A;} .st3{fill-rule:evenodd;clip-rule:evenodd;fill:#537918;}</style><g><path class="st0" d="M119.11,3.76c-5.86-5.86-17.37-4.65-31.25,2.05c-11.32,5.47-24.42,14.63-37.3,26.51 c-2.69-10.33-9.2-19.34-21.09-25.16c-4.37-2.14-10.03-3.76-15.4-4.58C24.76,8.96,32.3,16.25,34.9,24.29 C43.91,52.24,1.85,67.33,7.05,93.93c-0.2,0.76-0.38,1.5-0.54,2.23c-4.55,4.5-9.91,9.79-3.68,15.87l8.71,8.71 c5.26,5.01,10.99-0.45,14.85-4.31c0.65-0.13,1.3-0.28,1.97-0.45c33.3,5.77,54.03-63.82,91.95-6.55c-0.8-4.58-1.9-9.11-3.74-13.56 c-5.37-12.95-14.87-20.38-26.03-23.54c11.89-12.89,21.06-26,26.53-37.33C123.76,21.13,124.98,9.62,119.11,3.76L119.11,3.76 L119.11,3.76z"/><path class="st1" d="M50.56,32.32c-2.69-10.33-9.2-19.34-21.09-25.16c-4.37-2.14-10.03-3.76-15.4-4.58 C24.76,8.96,32.3,16.25,34.9,24.29C43.91,52.24,1.85,67.33,7.05,93.93c-0.2,0.76-0.38,1.5-0.54,2.23 c-4.55,4.5-9.91,9.79-3.68,15.87l8.71,8.71c3.18,3.03,6.53,2.23,9.53,0.28c-3.21,1.99-6.1,2.28-8.57,0.46l30.48-42.06 c4.8-2.38,9.94-4.37,15.21-5.83c-5.36,1.48-10.58,3.51-15.46,5.95C51.32,63.21,53.82,47.49,50.56,32.32L50.56,32.32z M115.3,93.08 c-0.1-0.2-0.2-0.4-0.31-0.6C115.1,92.69,115.2,92.88,115.3,93.08L115.3,93.08z M114.62,91.75c-0.05-0.1-0.11-0.2-0.16-0.3 C114.51,91.55,114.57,91.65,114.62,91.75L114.62,91.75z M113.91,90.47c-0.08-0.14-0.17-0.28-0.25-0.42 C113.75,90.2,113.83,90.33,113.91,90.47L113.91,90.47z M113.17,89.24c-0.1-0.16-0.2-0.31-0.3-0.47 C112.97,88.93,113.07,89.08,113.17,89.24L113.17,89.24z M112.41,88.05c-0.13-0.19-0.26-0.38-0.39-0.57 C112.14,87.68,112.28,87.86,112.41,88.05L112.41,88.05z M111.61,86.91c-0.15-0.2-0.3-0.4-0.45-0.6 C111.31,86.51,111.46,86.71,111.61,86.91L111.61,86.91z M110.78,85.81c-0.14-0.18-0.29-0.36-0.44-0.54 C110.49,85.45,110.64,85.63,110.78,85.81L110.78,85.81z M109.93,84.75c-0.12-0.15-0.25-0.29-0.37-0.43 C109.68,84.46,109.81,84.61,109.93,84.75L109.93,84.75z M109.05,83.74c-0.14-0.16-0.29-0.31-0.43-0.46 C108.76,83.43,108.91,83.58,109.05,83.74L109.05,83.74z M108.15,82.77c-0.16-0.16-0.32-0.32-0.48-0.48 C107.83,82.45,107.99,82.61,108.15,82.77L108.15,82.77z M107.22,81.84c-0.16-0.16-0.33-0.31-0.49-0.46 C106.89,81.53,107.05,81.68,107.22,81.84L107.22,81.84z M106.27,80.96c-0.16-0.15-0.33-0.29-0.49-0.43 C105.94,80.67,106.1,80.81,106.27,80.96L106.27,80.96z M105.29,80.11c-0.18-0.15-0.36-0.29-0.54-0.43 C104.93,79.82,105.11,79.96,105.29,80.11L105.29,80.11z M104.29,79.31c-0.18-0.14-0.36-0.27-0.54-0.41 C103.93,79.04,104.11,79.17,104.29,79.31L104.29,79.31z M103.26,78.54c-0.17-0.12-0.35-0.24-0.52-0.36 C102.92,78.29,103.09,78.41,103.26,78.54L103.26,78.54z M102.23,77.81c-0.19-0.13-0.38-0.25-0.57-0.37 C101.84,77.57,102.04,77.69,102.23,77.81L102.23,77.81z M101.16,77.13c-0.19-0.12-0.38-0.23-0.58-0.35 C100.78,76.9,100.97,77.01,101.16,77.13L101.16,77.13z M100.08,76.48c-0.21-0.12-0.43-0.24-0.65-0.36 C99.65,76.24,99.87,76.36,100.08,76.48L100.08,76.48z M98.98,75.87c-0.21-0.11-0.43-0.22-0.65-0.33 C98.55,75.65,98.77,75.76,98.98,75.87L98.98,75.87z M97.86,75.3c-0.21-0.1-0.41-0.2-0.62-0.29C97.44,75.1,97.65,75.2,97.86,75.3 L97.86,75.3z M96.72,74.77c-0.22-0.1-0.44-0.19-0.65-0.28C96.28,74.58,96.5,74.67,96.72,74.77L96.72,74.77z M95.57,74.27 c-0.22-0.09-0.45-0.18-0.68-0.27C95.11,74.09,95.34,74.17,95.57,74.27L95.57,74.27z M94.4,73.81c-0.24-0.09-0.49-0.18-0.73-0.26 C93.91,73.63,94.16,73.72,94.4,73.81L94.4,73.81z M93.22,73.38c-0.24-0.08-0.49-0.16-0.73-0.24C92.73,73.22,92.97,73.3,93.22,73.38 L93.22,73.38z M92.01,72.99c-0.27-0.08-0.53-0.16-0.8-0.23C91.48,72.83,91.75,72.91,92.01,72.99L92.01,72.99z M90.81,72.64 c-0.29-0.08-0.57-0.15-0.86-0.23C90.23,72.48,90.52,72.56,90.81,72.64L90.81,72.64z M89.58,72.32c-0.28-0.07-0.56-0.13-0.85-0.2 C89.02,72.18,89.3,72.25,89.58,72.32L89.58,72.32z M88.34,72.03c-0.29-0.06-0.58-0.12-0.87-0.18 C87.76,71.91,88.05,71.96,88.34,72.03L88.34,72.03z M87.09,71.77c-0.29-0.05-0.58-0.1-0.87-0.15 C86.51,71.67,86.8,71.72,87.09,71.77L87.09,71.77z M85.83,71.55c-0.3-0.05-0.61-0.09-0.92-0.14C85.22,71.46,85.52,71.5,85.83,71.55 L85.83,71.55z M84.56,71.36c-0.31-0.04-0.63-0.08-0.95-0.12C83.93,71.28,84.25,71.32,84.56,71.36L84.56,71.36z M83.28,71.2 c-0.33-0.04-0.65-0.07-0.98-0.1C82.63,71.14,82.95,71.17,83.28,71.2L83.28,71.2z M82,71.08c-0.33-0.03-0.67-0.05-1-0.07 C81.33,71.03,81.66,71.05,82,71.08L82,71.08z M80.7,70.98c-0.33-0.02-0.67-0.04-1.01-0.05C80.03,70.95,80.36,70.96,80.7,70.98 L80.7,70.98z M79.39,70.92c-0.34-0.01-0.68-0.02-1.02-0.03C78.71,70.89,79.05,70.9,79.39,70.92L79.39,70.92z M78.08,70.88 c-0.35-0.01-0.69-0.01-1.04-0.01C77.39,70.87,77.74,70.88,78.08,70.88L78.08,70.88z M76.77,70.87c-0.36,0-0.72,0.01-1.08,0.02 C76.05,70.88,76.41,70.88,76.77,70.87L76.77,70.87z M75.45,70.9c-0.39,0.01-0.79,0.03-1.18,0.05 C74.66,70.92,75.06,70.91,75.45,70.9L75.45,70.9z M74.14,70.95c-0.38,0.02-0.75,0.04-1.13,0.07 C73.39,70.99,73.76,70.97,74.14,70.95L74.14,70.95z M72.79,71.03c-0.37,0.03-0.74,0.06-1.1,0.09 C72.06,71.08,72.43,71.05,72.79,71.03L72.79,71.03z M71.46,71.13c-0.38,0.03-0.77,0.07-1.15,0.11 C70.69,71.21,71.08,71.17,71.46,71.13L71.46,71.13z M70.14,71.27c-0.4,0.04-0.79,0.09-1.19,0.14 C69.35,71.36,69.74,71.31,70.14,71.27L70.14,71.27z M68.8,71.43c-0.41,0.05-0.82,0.11-1.23,0.17 C67.99,71.54,68.39,71.48,68.8,71.43L68.8,71.43z M67.47,71.61c-0.42,0.06-0.83,0.13-1.25,0.2C66.64,71.74,67.06,71.67,67.47,71.61 L67.47,71.61z M66.14,71.82c-0.43,0.07-0.86,0.15-1.29,0.23C65.28,71.97,65.71,71.89,66.14,71.82L66.14,71.82z M64.81,72.05 c-0.43,0.08-0.86,0.16-1.28,0.25C63.96,72.22,64.38,72.13,64.81,72.05L64.81,72.05z M63.48,72.32c-0.43,0.09-0.85,0.18-1.27,0.27 C62.63,72.49,63.05,72.4,63.48,72.32L63.48,72.32z M62.15,72.6c-0.42,0.09-0.84,0.19-1.25,0.29C61.31,72.79,61.73,72.69,62.15,72.6 L62.15,72.6z M60.81,72.91c-0.43,0.1-0.86,0.21-1.3,0.32C59.95,73.12,60.38,73.01,60.81,72.91L60.81,72.91z M59.5,73.24 c-0.44,0.11-0.87,0.23-1.31,0.35C58.63,73.47,59.06,73.35,59.5,73.24L59.5,73.24z"/><path class="st2" d="M90.12,43.38c-3.11,3.46-6.44,7.03-9.95,10.66c-1.61-1.51-3.23-3.1-4.84-4.73c-2.17-2.2-4.31-4.47-6.33-6.72 c3.66-3.53,7.25-6.87,10.73-10c2.01,2.3,4.15,4.6,6.32,6.82C87.4,40.77,88.76,42.1,90.12,43.38L90.12,43.38L90.12,43.38z"/><path class="st2" d="M101.84,29.61c-2.61,3.28-5.54,6.77-8.74,10.41c-1.29-1.21-2.58-2.47-3.85-3.77 c-2.13-2.16-4.21-4.41-6.17-6.64c3.63-3.18,7.1-6.09,10.37-8.68c1.61,1.89,3.29,3.72,5.02,5.47 C99.57,27.5,100.69,28.58,101.84,29.61L101.84,29.61L101.84,29.61z"/><path class="st2" d="M99.24,16.5c9.06-6.67,15.21-10.25,16.32-9.15c1.1,1.1-2.47,7.26-9.15,16.32c-0.58,0.78-1.18,1.58-1.8,2.4 c-1-0.92-1.99-1.86-2.96-2.84c-1.61-1.62-3.16-3.31-4.65-5.06C97.76,17.59,98.5,17.03,99.24,16.5L99.24,16.5L99.24,16.5z"/><path class="st2" d="M74.55,18.77c4.06-2.77,8.01-5.18,11.79-7.19c1.35,1.99,2.78,3.95,4.26,5.86c-3.29,2.62-6.79,5.55-10.44,8.74 C78.04,23.59,76.13,21.08,74.55,18.77L74.55,18.77L74.55,18.77z"/><path class="st2" d="M89.16,67.23c-1.2,1.33-2.42,2.66-3.68,3.99c-5.15-0.85-10.55-0.89-16-0.23c2.78-2.64,5.61-5.39,8.45-8.23 c0.82-0.82,1.63-1.64,2.44-2.45C83.51,63.08,86.52,65.48,89.16,67.23L89.16,67.23L89.16,67.23z"/><path class="st2" d="M101.2,52.42c-2.74,3.75-5.77,7.57-9.05,11.4c-2.54-1.62-5.51-3.97-8.64-6.73c3.51-3.63,6.84-7.21,9.96-10.68 C96.13,48.73,98.75,50.79,101.2,52.42L101.2,52.42L101.2,52.42z"/><path class="st2" d="M111.13,36.83c-2.06,3.82-4.51,7.83-7.33,11.93c-2.31-1.53-4.8-3.48-7.35-5.7c3.22-3.67,6.18-7.19,8.82-10.51 C107.17,34.09,109.12,35.52,111.13,36.83L111.13,36.83L111.13,36.83z"/><path class="st2" d="M118.38,12.56c0.58,5.03-1.3,12.07-5.21,20.24c-1.76-1.17-3.48-2.43-5.15-3.79c0.7-0.91,1.36-1.8,2-2.67 C113.96,21.01,116.82,16.32,118.38,12.56L118.38,12.56L118.38,12.56z"/><path class="st2" d="M90.38,9.54c8.08-3.83,15.04-5.65,20.01-5.05c-3.76,1.56-8.47,4.42-13.83,8.37c-0.79,0.58-1.59,1.18-2.41,1.81 C92.84,13,91.58,11.29,90.38,9.54L90.38,9.54L90.38,9.54z"/><path class="st2" d="M77.04,57.25c-0.76,0.77-1.52,1.54-2.29,2.31c-3.12,3.12-6.21,6.12-9.25,8.99c-1.8-1.7-3.61-3.48-5.39-5.3 c-1.9-1.94-3.79-3.96-5.61-6c2.82-2.99,5.78-6.03,8.85-9.1c0.82-0.82,1.64-1.63,2.46-2.44c2.04,2.26,4.18,4.54,6.36,6.75 C73.77,54.11,75.41,55.72,77.04,57.25L77.04,57.25L77.04,57.25z"/><path class="st2" d="M59.24,30.56c3.91-3.35,7.82-6.43,11.65-9.21c1.67,2.43,3.69,5.08,5.93,7.8c-3.5,3.14-7.11,6.5-10.78,10.04 C63.38,36.09,61.04,33.13,59.24,30.56L59.24,30.56L59.24,30.56z"/><path class="st2" d="M51.58,37.47c1.42-1.35,2.84-2.66,4.27-3.93c1.89,2.65,4.28,5.66,6.96,8.79c-0.89,0.87-1.77,1.75-2.66,2.64 c-3.05,3.05-5.99,6.07-8.8,9.05C52.18,48.4,52.32,42.81,51.58,37.47L51.58,37.47L51.58,37.47z"/><path class="st2" d="M56.52,73.86c-4.5,1.44-8.91,3.22-13.22,5.37c2.58-5.28,4.73-10.92,6.27-16.66c0.61-0.67,1.23-1.34,1.85-2.02 c1.74,1.93,3.59,3.89,5.48,5.84c1.76,1.81,3.55,3.57,5.31,5.23c-0.33,0.3-0.66,0.6-0.98,0.9C59.65,72.91,58.08,73.36,56.52,73.86 L56.52,73.86L56.52,73.86z"/><path class="st3" d="M27.74,116.13c0.2-0.05,0.41-0.1,0.62-0.15c33.3,5.77,54.03-63.82,91.95-6.55 c-5.86-42.73-43.67-46.69-77.33-30.01L12.5,121.48c3.75,2.76,8.44,0.67,13.78-4.83L27.74,116.13L27.74,116.13z"/></g></svg>