<?xml version="1.0" encoding="iso-8859-1"?>
<!-- Generator: Adobe Illustrator 17.1.0, SVG Export Plug-In . SVG Version: 6.00 Build 0)  -->
<!DOCTYPE svg PUBLIC "-//W3C//DTD SVG 1.1//EN" "http://www.w3.org/Graphics/SVG/1.1/DTD/svg11.dtd">
<svg version="1.1" id="Capa_1" xmlns="http://www.w3.org/2000/svg" xmlns:xlink="http://www.w3.org/1999/xlink" x="0px" y="0px"
	 viewBox="0 0 209.774 209.774" style="enable-background:new 0 0 209.774 209.774;" xml:space="preserve">
<path d="M197.575,1.312c-3.418-2.34-8.085-1.465-10.425,1.953l-16.568,24.204c-0.029,0.042-0.058,0.085-0.086,0.128l-5.491,8.388
	c-3.939,6.016-6.032,12.997-6.052,20.188l-0.294,105.754c-0.005,1.73-1.414,3.134-3.146,3.134c-0.003,0-0.006,0-0.009,0l-0.211,0
	c-1.133-0.003-1.877-0.582-2.22-0.927s-0.917-1.092-0.914-2.225l0.168-60.271c0.033-12.017-9.518-21.86-21.438-22.29l0.12-43.019
	c0.015-5.298-2.034-10.284-5.77-14.041c-3.735-3.756-8.71-5.833-14.008-5.848L29.175,16.21c-10.906,0-19.803,8.873-19.833,19.778
	L8.935,181.987c-0.019,6.907,4.822,12.704,11.294,14.173l-0.016,5.859c-0.011,4.142,3.337,7.509,7.479,7.521l84,0.234
	c0.007,0,0.014,0,0.021,0c1.981,0,3.883-0.784,5.289-2.182c1.411-1.402,2.206-3.308,2.211-5.297l0.016-5.859
	c6.477-1.434,11.353-7.211,11.372-14.11l0.245-87.96c1.652,0.173,3.183,0.902,4.371,2.096c1.366,1.373,2.115,3.196,2.109,5.132
	l-0.168,60.271c-0.014,4.846,1.861,9.407,5.278,12.844c3.417,3.436,7.968,5.336,12.818,5.35l0.211,0c0.017,0,0.033,0,0.05,0
	c9.98,0,18.114-8.105,18.143-18.092l0.294-105.755c0.005-1.801,0.241-3.576,0.673-5.299c2.438,1.564,5.325,2.488,8.43,2.497
	c0.007,0,0.039-0.004,0.044,0c8.66,0,15.725-7.046,15.75-15.706c0.012-4.207-1.616-8.167-4.582-11.15
	c-0.966-0.971-2.045-1.786-3.196-2.464l8.456-12.353C201.867,8.319,200.993,3.651,197.575,1.312z M103.653,43.876l-0.089,32
	L36.897,75.69l0.089-32L103.653,43.876z"/>
<circle cx="183.1" cy="37.66" r="8.25"/>
<g>
</g>
<g>
</g>
<g>
</g>
<g>
</g>
<g>
</g>
<g>
</g>
<g>
</g>
<g>
</g>
<g>
</g>
<g>
</g>
<g>
</g>
<g>
</g>
<g>
</g>
<g>
</g>
<g>
</g>
</svg>
