<svg width="20" height="18" viewBox="0 0 20 18" fill="#ffffff" xmlns="http://www.w3.org/2000/svg">
  <path d="M10 8.81408C11.8902 8.81408 13.4226 6.95285 13.4226 4.65697C13.4226 2.36105 12.9194 0.499817
          10 0.499817C7.0805 0.499817 6.57739 2.36105 6.57739 4.65697C6.57744 6.95285 8.10984 8.81408 10 8.81408Z"/>
  <path d="M16.4572 14.9936C16.3939 10.9941 15.8715 9.85443 11.8743 9.133C11.8743 9.133 11.3116 9.84995
          10.0001 9.84995C8.68867 9.84995 8.12601 9.133 8.12601 9.133C4.17244 9.8465 3.61823 10.9693 3.54538
          14.8637C3.53946 15.1817 3.53673 15.1984 3.53564 15.1614C3.53585 15.2306 3.53616 15.3585 3.53616
          15.5816C3.53616 15.5816 4.48782 17.5001 10.0002 17.5001C15.5125 17.5001 16.4643 15.5816 16.4643
          15.5816C16.4643 15.4383 16.4644 15.3386 16.4645 15.2708C16.4634 15.2937 16.4612 15.2494 16.4572 14.9936Z"/>
  <path d="M14.7497 8.07185C16.285 8.07185 17.5295 6.56021 17.5295 4.69553C17.5295 2.83079 17.1209 1.31915
           14.7497 1.31915C14.3509 1.31915 14.0077 1.36207 13.7124 1.44217C14.2601 2.45179 14.3352 3.67808 14.3352
           4.65694C14.3352 5.76526 14.0347 6.82341 13.4814 7.69954C13.8617 7.93703 14.2927 8.07185 14.7497 8.07185Z"/>
  <path d="M19.9939 13.0908C19.9424 9.84241 19.5182 8.91682 16.2718 8.33087C16.2718 8.33087 15.8148 8.91321
           14.7496 8.91321C14.7056 8.91321 14.6629 8.91187 14.6208 8.90997C15.2976 9.2151 15.9133 9.63995 16.3667
           10.2616C17.1505 11.3364 17.3307 12.7802 17.3679 14.9013C19.552 14.4697 19.9997 13.5684 19.9997
           13.5684C19.9997 13.451 19.9997 13.3704 19.9999 13.3153C19.999 13.3347 19.9972 13.3 19.9939 13.0908Z"/>
  <path d="M5.25012 8.07186C5.70722 8.07186 6.13805 7.93704 6.5185 7.6996C5.96521 6.82347 5.66477 5.76532
           5.66477 4.657C5.66477 3.67809 5.73983 2.4518 6.28739 1.44223C5.99221 1.36213 5.64906 1.31921 5.25012
           1.31921C2.87898 1.31921 2.47046 2.83086 2.47046 4.69559C2.47046 6.56022 3.71499 8.07186 5.25012 8.07186Z"/>
  <path d="M5.37891 8.90991C5.33698 8.91181 5.29427 8.91315 5.25012 8.91315C4.18497 8.91315 3.72797 8.33081
           3.72797 8.33081C0.481625 8.91676 0.0573376 9.8423 0.00592437 13.0907C0.00257581 13.3 0.000875776 13.3346
           0 13.3152C0.000103033 13.3703 0.000206065 13.4509 0.000206065 13.5683C0.000206065 13.5683 0.447882
           14.4696 2.63186 14.9012C2.66921 12.7802 2.84931 11.3364 3.63323 10.2615C4.08658 9.63994 4.70215 9.21504
           5.37891 8.90991Z"/>
</svg>
