<svg width="18" height="16" viewBox="0 0 18 16" fill="#ffffff" xmlns="http://www.w3.org/2000/svg">
  <path d="M10.7107 0.563049H7.26792C6.91581 0.563049 6.63037 0.848492 6.63037 1.20059V14.7951C6.63037
              15.1472 6.91581 15.4327 7.26792 15.4327H10.7107C11.0628 15.4327 11.3482 15.1472 11.3482
              14.7951V1.20059C11.3482 0.84845 11.0628 0.563049 10.7107 0.563049Z"/>
  <path d="M17.3625 8.48987H13.9198C13.5677 8.48987 13.2822 8.77531 13.2822 9.12741V14.7994C13.2822 15.1515
              13.5677 15.437 13.9198 15.437H17.3625C17.7146 15.437 18.0001 15.1515 18.0001 14.7994V9.12741C18.0001
              8.77527 17.7146 8.48987 17.3625 8.48987Z"/>
  <path d="M4.08028 5.64215H0.637544C0.285442 5.64215 0 5.92759 0 6.2797V14.7909C0 15.143 0.285442 15.4285
              0.637544 15.4285H4.08028C4.43239 15.4285 4.71783 15.143 4.71783 14.7909V6.2797C4.71783 5.92759 4.43239
              5.64215 4.08028 5.64215Z"/>
</svg>
