<svg width="15" height="17" viewBox="0 0 15 17" fill="#ffffff" xmlns="http://www.w3.org/2000/svg">
  <path d="M9.07141 1.61909C8.2118 0.7313 6.78796 0.731299 5.92835 1.61909L1.72968 5.95535C1.48855 6.20439
          1.32651 6.51923 1.26399 6.86019C0.754071 9.64092 0.716431 12.4877 1.15265 15.2809L1.30709 16.2699C1.35587
          16.5822 1.6249 16.8125 1.94104 16.8125H4.87488C5.11651 16.8125 5.31238 16.6166 5.31238
          16.375V10.25H9.68738V16.375C9.68738 16.6166 9.88326 16.8125 10.1249 16.8125H13.0587C13.3748 16.8125 13.6439
          16.5822 13.6926 16.2699L13.8471 15.2809C14.2833 12.4877 14.2457 9.64092 13.7357 6.86019C13.6732 6.51923
          13.5112 6.20439 13.27 5.95536L9.07141 1.61909Z"  />
</svg>
