<svg width="348" height="232" viewBox="0 0 348 232" fill="none" xmlns="http://www.w3.org/2000/svg">
<path d="M130.521 2.8108C184.78 13.9642 233.316 75.3685 300.785 101.509C368.55 127.324 455.247 117.874 482.676 149.363C510.076 180.228 477.614 252.683 475.843 333.357C474.072 414.03 503.023 503.545 467.496 518.36C432 533.798 332.026 474.538 256.695 473.449C181.365 472.36 130.35 529.146 94.3764 528.052C58.6995 526.632 38.3604 467.005 -4.86218 412.219C-48.4113 357.136 -115.17 306.597 -125.981 250.264C-136.496 193.604 -90.765 130.823 -37.8796 80.5069C15.3025 29.8644 75.9362 -8.63941 130.521 2.8108Z" fill="#75C2BF"/>
</svg>
