<svg id="Layer_1" xmlns="http://www.w3.org/2000/svg" xmlns:xlink="http://www.w3.org/1999/xlink" x="0px" y="0px"
     viewBox="0 0 64 64" >
<g id="Profit">
	<path d="M32.8869896,19.6364498c0-0.4902992-0.3974991-0.8876991-0.8876991-0.8876991s-0.8876991,0.3973999-0.8876991,0.8876991
		c0,0.9505005,0.5403004,2.4869995,3.8876991,2.7425995V24.53195c0,0.5527,0.4473,1,1,1s1-0.4473,1-1v-2.1742992
		c2.4820023-0.2922001,3.8876991-1.7041016,3.8876991-3.9839001c0-1.6809006-0.7114983-3.6493006-3.8876991-3.9885006v-3.8964005
		c0.7468987,0.1136007,1.0988998,0.3435001,1.2528992,0.4981003c0.1786995,0.1787996,0.1934013,0.3466997,0.1944008,0.3818998
		c-0.0312996,0.4736004,0.3174019,0.8916006,0.7938995,0.9414005c0.4971008,0.0448999,0.9238014-0.3037004,0.9746017-0.7910004
		c0.0098-0.0928001,0.0741997-0.9258003-0.6132927-1.6884995c-0.558609-0.6194-1.4387093-0.9893007-2.6025085-1.1229V6.53195
		c0-0.5528002-0.4473-1-1-1s-1,0.4471998-1,1v2.1612997c-3.4119987,0.3158998-3.8876991,2.2707005-3.8876991,3.9969006
		c0,2.0171995,1.3117981,3.1429996,3.8876991,3.3669004v4.5409985
		C33.8845901,20.4961491,32.8869896,20.2100506,32.8869896,19.6364498z M39.1115913,18.3737507
		c0,0.5457001-0.0017929,1.8843994-2.1123009,2.2014999v-4.4084015
		C38.4936905,16.3527508,39.1115913,17.0144501,39.1115913,18.3737507z M32.8869896,12.6901503
		c0-0.9806004,0.0017014-1.9900007,2.1123009-2.2209005v3.8146C32.8886909,14.0763502,32.8869896,13.1928501,32.8869896,12.6901503z
		"/>
    <path d="M60.9865913,39.0680504c-0.8809013-1.285202-2.4766006-2.6436005-4.0889015-2.2285004
		c-1.7578011,0.4511986-3.333889,2.2187004-5.1590996,4.2645988c-2.1620979,2.4239006-4.6114006,5.1709023-7.6835976,6.0625
		c-5.9785004,1.7344017-13.5049019,0.472702-15.847702,0.0020027c-0.25-0.3994026-0.1973-1.6914024,0.0321999-1.9395027
		c0.5098-0.1854973,1.7119999-0.0467987,2.9794998,0.1006012c2.1807022,0.2519989,5.1690025,0.5976982,8.5684013-0.0576019
		c0.7645988-0.1464996,1.5713005-0.8778992,1.5458984-2.4921989c-0.0351982-2.142601-1.6503983-5.4081993-5.1338005-5.9598999
		c-1.6591988-0.2626991-6.0653992-0.961998-11.9550991-1.3008003c-2.3534985-0.1455002-6.2313995,2.8281021-7.5311985,3.8672028
		H2.9992919c-0.561492,0-1.0176001,0.4559975-1.0176001,1.017498v12.8974991c0,0.5615005,0.4561081,1.017601,1.0176001,1.017601
		h10.1669998c1.5205088,1.1826019,8.6181993,6.5722008,13.143508,7.7080002
		c2.9658928,0.7440987,6.7177925,1.5243988,10.4746933,1.5243988c2.7645988,0,5.5321999-0.4228973,7.9911995-1.5928001
		c5.8671989-2.7929001,12.2587967-11.947197,15.6923981-16.8652c0.4062004-0.5800972,0.7635994-1.0937996,1.0672989-1.5175972
		C62.4914894,42.2389488,61.8791885,40.3707504,60.9865913,39.0680504z M4.016892,41.4215508h7.8887v10.8623009h-7.8887V41.4215508z
		 M59.8810921,42.3922501c-0.3076019,0.4296989-0.6699028,0.9491997-1.0800018,1.5371017
		c-3.089901,4.4238968-9.5186005,13.6308975-14.899498,16.1933975c-5.2089005,2.4746017-12.2519016,1.1464996-17.0966015-0.0683975
		c-4.5557003-1.1435013-12.5742989-7.485302-12.6542988-7.5488014c-0.0174007-0.0139008-0.0395002-0.0191994-0.0576-0.0318985
		V41.4215508h2.9804001c0.2353992,0,0.4638996-0.0820007,0.6455002-0.2313995
		c1.8925991-1.5547028,5.1338081-3.6690025,6.4081993-3.6397018c5.7880993,0.3330002,10.1220989,1.0205002,11.7539005,1.2793007
		c1.8467064,0.2919998,2.7061005,1.6641006,3.0537071,2.4561005c0.4218903,0.9608994,0.4023933,1.7383003,0.3124924,2.017601
		c-3.030201,0.5584984-5.6669006,0.2509003-7.7949009,0.0057983c-1.7108994-0.1973-2.9442997-0.3408012-3.9071999,0.0078011
		c-1.1845989,0.4306984-1.6142998,1.9921989-1.5145988,3.3495979c0.1005001,1.357502,0.7206993,2.2823029,1.6590996,2.4737015
		c2.3232994,0.4735985,10.4111996,1.8719978,16.9316998-0.0205002c3.6347008-1.0537987,6.4071999-4.1631012,8.6347008-6.6612015
		c1.5370979-1.7235985,2.9892998-3.3514977,4.1464996-3.6483994c0.3417969-0.0849991,1.1865005,0.3563995,1.9053001,1.4071999
		C59.9601898,41.169651,60.1105919,42.0709496,59.8810921,42.3922501z"/>
    <path d="M35.9992905,30.4485493c8.2843018,0,15-6.7157001,15-14.999999c0-8.2842007-6.7156982-15-15-15s-15,6.7158003-15,15
		C20.9992905,23.7328491,27.7149906,30.4485493,35.9992905,30.4485493z M35.9992905,2.44855c7.1682014,0,13,5.8317995,13,13
		c0,7.1682997-5.8317986,12.999999-13,12.999999s-13-5.8316994-13-12.999999
		C22.9992905,8.2803497,28.8310909,2.44855,35.9992905,2.44855z"/>
</g>
</svg>
