<svg width="20" height="18" viewBox="0 0 20 18" fill="#ffffff" xmlns="http://www.w3.org/2000/svg">
  <path d="M10.5253 5.25286C10.3284 4.85232 9.67155 4.85232 9.47468 5.25286L8.52483 7.1772L6.39967
          7.48618C6.17994 7.51821 5.99569 7.6727 5.92701 7.88501C5.85834 8.09673 5.91557 8.32962 6.0758
          8.48524L7.61276 9.98383L7.24885 12.0998C7.21108 12.3196 7.30151 12.5416 7.48233 12.6726C7.66315 12.8048
          7.90233 12.8208 8.09916 12.7173L10 11.7188L11.9009 12.7173C12.1047 12.8246 12.3435 12.7998 12.5177
          12.6726C12.6985 12.5416 12.7889 12.3196 12.7512 12.0998L12.3873 9.98383L13.9243 8.48524C14.0845 8.32962
          14.1417 8.09673 14.073 7.88501C14.0044 7.6727 13.8201 7.51821 13.6004 7.48618L11.4752 7.1772L10.5253
          5.25286Z"/>
  <path d="M1.43101 9.45756L0.534956 9.5371C0.215659 9.56569 -0.0223878 9.84553 0.00167468 10.1654C0.0451513
          10.7319 0.109253 11.1862 0.199643 11.5781C0.370151 12.4393 0.823003 13.1872 1.46843 13.5196C2.67316 14.1964
          3.62511 13.2564 3.74238 13.2089C3.96437 13.5347 4.19917 13.8156 4.44503 14.0615C3.97925 14.2378 3.57871
          14.5284 3.28918 14.9061L2.70554 15.682C2.52472 15.9223 2.55449 16.2593 2.77421 16.4636C3.54117 17.1754
          4.25757 17.7871 5.2507 17.7871C6.31257 17.7871 7.13105 17.0534 7.34382 16.007L7.43308 15.5847C7.5189
          15.5973 7.60589 15.607 7.69402 15.615C7.98468 15.6385 8.29941 15.4062 8.32917 15.0829C8.35777 14.7607
          8.11976 14.4764 7.79703 14.4477C5.96527 14.2869 3.9823 12.5876 3.7939 9.83174C3.63234 7.97128 4.49312
          5.83155 6.47753 4.79292C6.94902 4.58694 7.35074 4.20811 7.71121 3.62217C8.49597 2.27815 8.07793 1.39659
          8.12089 0.758855C8.09718 0.431902 7.81253 0.185496 7.48003 0.215848C6.13285 0.345652 4.96371 0.692488
          4.45535 1.96624C4.16582 2.62714 4.20929 3.41448 4.5698 4.06967L4.80097 4.4971C4.55265 4.71167 4.32031
          4.9503 4.10746 5.20835C3.95527 4.74831 3.71835 4.34948 3.41851 4.05249L2.73531 3.38928C2.47792 3.14151
          2.06093 3.1769 1.85183 3.46655C1.59207 3.82706 1.31968 4.21444 1.11253 4.62467C0.303159 6.07065 0.734253
          8.04776 2.30386 8.45901L2.65863 8.55573C2.60714 8.94081 2.58996 9.33163 2.61171 9.7219C2.19968 9.5142
          1.83839 9.42377 1.43101 9.45756Z"/>
  <path d="M15.5355 1.98327C15.2357 1.23425 14.5616 0.644328 13.7961 0.448625C13.4184 0.338196 13.0075
          0.264368 12.504 0.215735C12.1675 0.18425 11.8865 0.436164 11.8632 0.758742C11.7414 1.98589 11.7162 2.6632
          12.2786 3.63464C12.6322 4.20741 13.0339 4.5862 13.4642 4.77159C15.5319 5.85206 16.354 7.95214 16.1879
          9.84304C16.0273 12.1755 14.4348 14.2492 12.1871 14.4476C11.8643 14.4762 11.6263 14.7606 11.6549
          15.0827C11.6835 15.406 11.9937 15.6406 12.2901 15.6149C12.3771 15.6075 12.464 15.5971 12.5498 15.5851L12.638
          16.0028C12.8503 17.0447 13.6568 17.7869 14.7391 17.7869C15.2347 17.7869 15.7393 17.6267 16.1605
          17.3223C16.5404 17.0745 16.8734 16.7747 17.2088 16.464C17.4296 16.2597 17.4594 15.9215 17.2786
          15.6818L16.6938 14.9059C16.6926 14.9048 16.6926 14.9036 16.6914 14.903C16.4065 14.5288 16.0059
          14.2382 15.5379 14.0613C15.787 13.8105 16.0163 13.5395 16.2406 13.2087C16.3595 13.2569 17.3511
          14.1996 18.5352 13.5298C19.2001 13.187 19.6312 12.4391 19.7983 11.5934C19.8933 11.174 19.9574 10.7197
          19.9986 10.1635C20.0215 9.84421 19.7846 9.56499 19.4653 9.53695L18.5693 9.45741C18.5681 9.45741 18.567
          9.45741 18.5647 9.45683C18.163 9.4248 17.7867 9.51347 17.3713 9.72347C17.3919 9.33265 17.3747 8.94128
          17.3232 8.55562C17.4416 8.49495 18.7126 8.39835 19.1394 7.02441C19.382 6.27366 19.279 5.35413 18.8819
          4.64691C18.6656 4.2189 18.4047 3.84527 18.1335 3.46761C17.9205 3.17261 17.5016 3.14468 17.25 3.38921C17.25
          3.38921 16.5634 4.05468 16.5622 4.05581C16.2636 4.34991 16.0278 4.7482 15.8756 5.20882C15.6627 4.95019
          15.4316 4.71214 15.1832 4.49698L15.4132 4.07355C15.7747 3.41433 15.8182 2.62698 15.5355 1.98327Z"/>
</svg>
