<svg xmlns="http://www.w3.org/2000/svg" width="28" height="24" viewBox="0 0 400 400" fill="#ffffff">
  <g>
    <polygon points="20.2,370 77.9,370 77.9,263.9 20.2,263.9"/>
    <polygon points="95.7,370 153.4,370 153.4,238.4 95.7,238.4"/>
    <polygon points="171.1,370 228.9,370 228.9,200 171.1,200"/>
    <polygon points="246.6,370 304.3,370 304.3,155.2 246.6,155.2"/>
    <polygon points="322.1,370 379.8,370 379.8,108.6 322.1,108.6"/>
    <path d="M309.3,59c0-0.5-0.1-0.9-0.2-1.4c-0.1-0.4,0-0.8-0.1-1.2c0-0.2-0.1-0.3-0.2-0.5c0-0.1,0-0.2-0.1-0.2
              c0-0.1-0.1-0.2-0.1-0.3c-0.4-0.9-0.8-1.7-1.5-2.4c0-0.1-0.1-0.2-0.2-0.2c0,0,0-0.1-0.1-0.1c0,0-0.1-0.1-0.2-0.1
              c-0.7-0.7-1.4-1.2-2.3-1.7c-0.1,0-0.1-0.1-0.2-0.1c0,0-0.1,0-0.1,0c-0.1,0-0.2-0.1-0.3-0.1c-0.8-0.3-1.8-0.5-2.7-0.6
              c-0.1,0-0.1,0-0.3,0c-0.1,0-0.2,0-0.3,0c-0.7,0-1.5,0.1-2.3,0.3l-68.6,20.3c-4.6,1.3-7.2,6.3-5.9,11c1.1,3.9,4.5,6.5,8.3,6.5
              c0.8,0,1.6-0.1,2.4-0.3l33.1-9.8C201,135.7,118.6,175.9,27.1,195c-4.6,1-7.6,5.7-6.7,10.5c0.8,4.2,4.4,7.1,8.4,7.1
              c0.6,0,1.1-0.1,1.7-0.2c93.2-19.4,177.3-60.3,245.6-118.8l-9.7,22.2c-1.9,4.5,0,9.8,4.3,11.8c1.2,0.5,2.4,0.8,3.5,0.8
              c3.3,0,6.4-1.9,7.8-5.2l26.5-60.6c0,0,0-0.1,0-0.1c0.2-0.4,0.2-0.9,0.3-1.3c0.1-0.5,0.3-1,0.4-1.6C309.2,59.4,309.3,59.2,309.3,59
              L309.3,59z"/>
  </g>
</svg>
