<svg xmlns="http://www.w3.org/2000/svg" width="18" height="14" viewBox="0 0 18 14" fill="#ffffff">
  <path d="M17.6448 11.9912C18.0888 9.44589 18.1168 6.84004 17.7274 4.28491L17.6631 3.86286C17.4953
          2.76169 16.5885 1.95144 15.5239 1.95144L6.77857 1.95144C6.74567 1.95144 6.719 1.92351 6.719 1.88904C6.719
          0.845753 5.91156 0 4.91554 0H2.61543C1.50812 0 0.575425 0.866655 0.443402 2.01824L0.169901 4.40389C-0.114838
          6.88758 -0.041352 9.40199 0.387896 11.8628C0.563067 12.867 1.36489 13.6198 2.33701 13.6926L3.85666
          13.8065C7.29954 14.0645 10.7556 14.0645 14.1985 13.8065L15.8425 13.6833C16.7414 13.6159 17.4829 12.9199
          17.6448 11.9912Z"/>
</svg>
