<svg width="18" height="18" viewBox="0 0 18 18" fill="none" xmlns="http://www.w3.org/2000/svg">
<path d="M5.50423 7.56374L8.99996 4.068L12.4973 7.56526L14.5313 5.53126L8.99996 0L3.47039 5.5296L5.50431 7.5636L5.50423 7.56374ZM0 9L2.03406 6.96564L4.06798 8.99957L2.03392 11.0336L0 9ZM5.50423 10.4365L8.99996 13.932L12.4973 10.4348L14.5323 12.4677L14.5313 12.4688L8.99996 18L3.47039 12.4704L3.46751 12.4675L5.50445 10.4363L5.50423 10.4365ZM13.9319 9.00086L15.966 6.96679L17.9999 9.00072L15.9659 11.0348L13.9319 9.00086Z" fill="white"/>
<path d="M11.063 8.99889H11.0639L9.00008 6.93494L7.47462 8.45997L7.29938 8.63529L6.93794 8.9968L6.93506 8.99961L6.93794 9.00256L9.00008 11.065L11.064 9.00105L11.065 8.9999L11.0631 8.99889" fill="white"/>
</svg>
